<svg xmlns="http://www.w3.org/2000/svg" viewBox="0 0 2160.36 292.32">
  <g id="Ebene_2" data-name="Ebene 2">
    <g id="Layer_1" data-name="Layer 1">
      <path d="M2146.2,211.67c-1.42.56-2.81,1.2-4.22,1.84-3.79,1.69-10.59.2-14.64.12-12.29-.24-24.11,3.34-36.39,1a266.59,266.59,0,0,0-34-4.35c-4.93-.28-9.85.05-14.78.15-6.25.13-8.79-1.33-10.7-7.31-2.39-7.47-7.06-12.16-14.82-11.1-7.06,1-12.06,8.63-17.77,12.14-7.46,4.58-22.62,12.48-26.68.49-2.34-6.9-1.11-14.36-5.47-20.63-2.36-3.38-6.58-5.47-10.46-3.05-4.68,2.91-7.92,6.86-11.61,10.92-4.52,5-9.12,9.3-13.26,14.66a172.92,172.92,0,0,1-18.77,20.59c-6.81,6.38-13.94,6-22.18,3.25-7.82-2.63-13.57-9.39-19.26-15.15a108.79,108.79,0,0,1-14-17.27c3.15-9.87,4.72-19,2.42-30.11-1.33-6.42-4.23-12.79-5.71-19.27-1.15-5-4.31-8.66-8.11-11.7-4-3.2-9.39.17-10.9,4.27-2.71,7.39-.82,16.26-1,24-.23,9.89.19,20.52,4,29.72,1.09,2.59,2.37,5.22,3.79,7.85-.56,1.3-1.12,2.57-1.65,3.8a91.47,91.47,0,0,1-7.23,14.19c-3.76,5.74-8.78,1.67-13.91,3.47-4.64,1.63-9,1-13.73,1.6a146.31,146.31,0,0,0-16.19,3c-21.84,5.26-42.34,15.71-65.06,16.68-12.47.52-25.15-1.78-37-5.43-5.2-1.58-10.1-2.37-14.84-5.29-2.74-1.68-1.94-9.93-2.58-13-.84-4.1-4.92-5.89-8.61-5.26-6.67,1.15-12.32,6.91-17,11.51-9,8.82-23.27,10.6-34,16.14-4.25,2.18-11.4,7.62-15,2.14-2-3-2.93-6.62-4.51-9.79-3.76-7.54-11.14-10.51-19-10.13-10.83.51-19.08,8.62-26.46,15.72-8.39,8.06-21.81,12.17-32.71,14.9-12.55,3.14-30.16,3.44-41.78-3.07-8-4.52.38-13.31,4.5-17a25.67,25.67,0,0,1,3.28-2.45c5.42-1.41,10.8-3,16.11-4.87,5.79-2,5.56-11.77-1.27-11.54-5,.17-11.2,2-17.13,5a223.29,223.29,0,0,1-49.74,7.37c-8.46.28-21,2-28.86-1.94-11.62-5.79,7.64-24.59,11.85-28.66a2.35,2.35,0,0,0,.42-2.69c.28,0,.57.06.85.12a1.64,1.64,0,0,0,.3.29c2.65,2,4.67,2.05,7.85,1.51,4.19-.72,4.6-6.79,1.32-8.86-5.94-3.76-12.65-4.13-19.49-3.87-7.78.29-16.46.78-24.09,2.39-8.51,1.8-18.5,2.87-26.31,7-.08,0-.17.11-.26.15,2.4-3.13,4.75-6.76,8-8.54a4.23,4.23,0,0,0,4.38-1,9.65,9.65,0,0,0,2.09-3.67,5.12,5.12,0,0,0,.09-3c.06-4.89-4.93-10-10.5-6.94-7.71,4.19-17.08,2.77-25.14,6-10.32,4.15-18.82,11.12-28.69,15.89-4.84,2.34-9.59,4.83-14.18,7.53.76-1.09,1.52-2.19,2.26-3.33,8.51-13.1,19.22-24.47,27.05-38.08,1.74-3-.2-8.18-4.14-7.78-15.72,1.56-25.23,15.31-35.69,26-6.29,6.44-13.4,12.24-20.21,18.1-3.64,3.13-7.32,7-11.19,10.66,1.62-3.32,3.24-6.63,4.77-10,3.84-8.43,5.76-18.15,9.29-26.83,6.89-16.93,15.7-34.9,14.87-53.67-.28-6.39-8.48-11.85-13.4-6-5.75,6.78-8.3,15.36-12.77,23a247.45,247.45,0,0,0-13.9,28c-3.9,9.11-6.9,18.8-10,28.31,0-1.27.09-2.53.1-3.76.15-11.85-1.38-23.36-2.93-35.07-.26-2-.55-3.93-.85-5.87.57-2.58,1.18-5.15,1.9-7.7,3.52-12.41,5.81-25.13,9.77-37.43,2.37-7.36,8.29-12.24,12.07-18.6,3.5-5.88,6.18-12.19,9.69-18.07a2.38,2.38,0,0,0-4-2.53c-3.15,4.71-5.76,9.72-8.65,14.59-3.24,5.47-8.71,10.22-12.62,15.31-7.18,9.36-9.65,22.23-12.37,33.82a134.08,134.08,0,0,0-19.69-43.19A174.25,174.25,0,0,0,1142,32.73c-10.49-6.34-19.51-15.36-29.34-22.63-6.5-4.81-15.19-12.25-23.49-9.51-5.31,1.74-8.4,7.74-5.5,13,9.67,17.65,28.22,29.9,42.73,43,8.17,7.39,16.42,15,24,23,8,8.49,12.42,19.12,18.65,28.89,11.45,18,23,39.48,22.78,61.56-.08,7.43,0,14.86.16,22.28-1.44-1.72-2.9-3.45-4.36-5.21-9.81-11.81-21.17-24.32-34.12-32.53-11.88-7.53-25.72-11.91-38.76-16.75a114.72,114.72,0,0,0-30-6.66c-5.39-.49-10.32,6.95-6.89,11.72,7.2,10,18.28,16.35,26.9,25,7,7,13,14.88,20.14,21.67-5.56-2.18-11.27-4-16.92-5.6-7.38-2.08-18.62-3.63-26-1.28a6.64,6.64,0,0,0-4.61,7.91c1.55,6.41,7.32,10.53,12.43,14.06,9.24,6.38,17.29,14.06,26.71,20.19q3.24,2.1,6.65,4c-11.46.9-22.91,2.14-34.33,2.84-20.38,1.27-40.92-2.52-61.24-3.35h-.52c1.32-3.91-.27-9.17-4.67-9.89-17.23-2.84-34.38,2.1-50.2,9.38,1.2-4.94,2.28-9.91,3.92-14.56a215,215,0,0,1,16.31-34.79c1.8-3.15-2.7-5.94-4.67-2.94-5.93,9-11.6,18-16,27.9-4.66,10.47-8.64,25.27-16.66,33.28-2.05.07-4.11.15-6.17.2a50.18,50.18,0,0,0-3.65-11.51c-.9-10.19,1.7-21.21,3.27-30.79.32-1.93-2.24-3.55-3.31-1.51a64.82,64.82,0,0,0-6.61,20.27c-4.59-7.14-9.85-13.91-14.14-20.44-4.78-7.27-11.09-14-16.5-20.8-4.88-6.12-10.08-12.91-17.16-16.36-3.09-1.5-6.62,1.41-4.91,4.81,12,23.91,29.26,48.74,32.1,76.31-15.45-.31-30.91-.75-46.32.2-22.81,1.41-45.51.79-68.34,2.61-3.58.29-7.13.64-10.68,1a7.38,7.38,0,0,0-4.93-7c-9.83-4.09-21.63-2.85-32-3.13q-20-.56-40-1.12c-1.07,0-2.13-.07-3.19-.12.09-3.8-2.53-7.81-6.1-8.76-6.43-1.71-12.55-1.28-19.12-.86-8.24.53-16.72-.28-25-.48q-13.22-.3-26.42-.72c-6.21-.21-13.51-1.42-20.23-1.24,3.07-3.09,6.07-6.23,9.8-8.66a19.26,19.26,0,0,1,1.94-1.09,31.44,31.44,0,0,1,7,0c4.77.59,9.37,1,14-.49,8.27-2.63,9.27-12.7,2.65-17.78-7.26-5.57-16.49-5-25.16-1.69-2.4.27-4.8.73-7.11,1.13-11.38,2-22.76,1.94-33.85,5.73-4.85,1.65-9.93,2.07-14.76,3.88-1.53.57-3,1.2-4.55,1.85,3.47-3.52,7-7,10.67-10.31,17.54-16,36.34-33.93,60.94-35.61,3.6,0,3.71-5.54.12-5.71-14-.66-27,3.53-39.09,10-8.67,3.28-17.2,7-25.65,10.71-4.27,1.87-8.92,3.86-13.59,6.11q3-4.35,6-8.69c10.55-15.28,22.57-29.09,38.45-38.65a1.52,1.52,0,0,0,.61-.71,47.3,47.3,0,0,1,10.39-2c5.51-.37,5.87-8.73.19-8.9-11.53-.37-22,3-32.33,8.09-11,5.48-22.43,11.14-32.26,18.69a182.13,182.13,0,0,0-26.88,24.69c2.27-4.5,4.62-9,7.16-13.4,5.87-10.27,11.27-20.58,16.8-31,3.18-6,8.07-16.29,14.43-21.55,1.77-.72,5.91-2.5,5.29-2.9a8.55,8.55,0,0,1,1.21-.3c7.77-1.21,6.17-14.13-1.54-14-5.25.11-10.62,3.69-15.38,5.86-8.87,4-15.31,7.72-21.26,15.75-5.79,7.81-10.54,16.31-15.41,24.74-5.58,9.67-11.66,18.66-15.73,29.16-2.93,7.58-5.47,15.19-7.7,22.87-.07-.35-.14-.7-.19-1a.48.48,0,0,0-.41-.41c.44-2.86.92-5.63,1.42-8.28,3.35-17.64,5.5-36,10.71-53.14a225.18,225.18,0,0,1,12.28-31.94c6.43-6.92,13.26-13.51,18.6-21.38,4.74-7,7.45-15.23,13-21.65.59-.68,1.21-1.45,1.85-2.27,5.12-4.48,10.93-7.95,15.54-13.18a2.92,2.92,0,0,0-2.65-4.91c-8.08,1-16.24,10.22-22.2,18.58a113.85,113.85,0,0,0-14.21,17.1,81.2,81.2,0,0,0-5.71,9.7h0a1.2,1.2,0,0,0-2-.12,19.63,19.63,0,0,0-2.57,5c-6.64,7-13.36,14-18.89,22.06-7.09,10.28-9.59,21.5-11.6,33a129,129,0,0,0-6.41-26.19c-5.49-14.89-8.43-30.22-13.52-45.14-2.31-6.79-6.32-12.48-9.19-18.94-2.62-5.9-3.93-11.74-7.85-16.94-3-4-10.3-1-10,4,.76,11.95,6.13,23.78,8.75,35.46,3.18,14.18,8.2,27.68,10.84,42.05,2.53,13.71,3.12,27.56,6.26,41.19.47,2.05,1,4.08,1.5,6.11A222,222,0,0,0,429,108c-13.2-12.8-28.14-23.44-43.73-32.91-9.4-5.7-30.64-20.85-39.91-7.91-1.49,2.08-1.71,6.09-.18,8.22,7.06,9.8,17.44,17.26,26,25.68,10.53,10.33,20.61,21.82,28.56,34.38,15.67,24.76,20.76,55.16,21.71,84.3-35.3-.08-76.58-2.81-111,9.68,1.72-1.86,3.45-3.71,5.2-5.53,6-6.24,11.24-13.24,17.36-19.42a87.94,87.94,0,0,1,13.49-11.39,98.26,98.26,0,0,0,14.43-5.35c6-2.85,3.64-14-3.2-13.24a36.59,36.59,0,0,0-13.2,4.27c-10.24,2.9-20.89,4.25-31.12,7.26-11.84,3.49-23.79,6.63-34.39,13.19-6.41,4-13,7.68-19.39,11.8.66-1.34,1.29-2.68,2-4A311.66,311.66,0,0,0,275,177.88c2.28-5.94,5.21-19.92,12.66-21,7.6-1.11,6.14-14.45-1.52-13.79-11,1-21.23,6.5-31.59,10A175.71,175.71,0,0,0,223,168a87.65,87.65,0,0,0-15.94,11.74c.43-2,.89-4,1.34-5.9,2-8.38,3.18-16.68,5.67-25,2.15-7.18,7-13,8.28-20.37s-7.08-11.38-11.54-5.28c-3.44,4.7-9.25,8.26-13.63,12a69.74,69.74,0,0,0-7.56,7.71l1.86-3.67a285.34,285.34,0,0,1,32.36-50.64c9-11.17,22.79-24.71,25.17-39.69.55-3.44-.64-6.34-4-7.59-5.18-1.93-10.41,2.76-14.26,5.68-7.55,5.7-15.25,8.51-23.78,12.37-17.14,7.74-28.77,26.95-35.42,44-8.71,22.32-11.21,46.76-17.46,69.79-1.35,5-1.21,10.23-1.35,15.33-.06,2.43-.25,4.81-.48,7.19-5.59-13.45-11.36-26.8-16.54-40.45-2.56-6.74-8.17-13.47-12-19.65-4.27-6.93-9.14-13.54-13.69-20.29-8-11.83-17.4-24.71-29.87-31.87C71.91,78.6,61,71.88,53.33,81.45s2.91,25.34,5.14,35.22c2.12,9.37,5.69,18.5,8.73,27.59s4.71,18.39,7.66,27.42a186.61,186.61,0,0,0,10,24.26c.65,1.32,1.4,2.62,2.19,3.9-5-2.34-10.47-3-15.89-3.48-14.9-1.31-30.74-4.39-45.66-3.07-4.82.42-7.43,6.74-2.79,9.69C34.25,210.33,46.19,213,56,223.54a39.05,39.05,0,0,1,3,3.68,5.3,5.3,0,0,0-.3,2c.08,2.76.14,5.25,1.24,7.82,2.5,5.85,2.56,7.7-2.9,10.53a52.28,52.28,0,0,1-22.9,5.6c-4.3-.09-7.09-8.36-10.35-10.87-3.8-2.9-12.51-1-16.85-1.21-6.11-.24-9,7.47-5.1,11.89l.47.52a6.09,6.09,0,0,0,6.4,1.61c2.8,0,5.59-.14,8.4-.32a16.53,16.53,0,0,1,2.05,2.3,30.86,30.86,0,0,0,4,4.35c5.68,5.11,13,4.36,20,3.4,8-1.09,20-5.54,25.93-11.28a169.11,169.11,0,0,1,2.12,19.94,3.35,3.35,0,0,0,6.7.14c1.28-18.31.2-37.53-11.08-52.59a71.41,71.41,0,0,0-16.67-15.89c4.68.6,9.38,1.19,14.12,1.41,7.29.34,13.94.53,20.77,3.73,4.9,2.3,8.18,8.06,13.21,10.66,3.44,1.78,8.67-.07,8.44-4.72-.59-12.23-9.15-22-14-32.75-6.72-14.76-9.33-30.57-14.34-45.88-4.39-13.4-6.69-28.26-12.67-41a20.34,20.34,0,0,1-2.2-6.43c-.14-1.31,7.88,2.68,8.47,3,6,3.23,10.91,7.57,15.66,12.46,20.27,20.87,34.85,48.92,44.47,76.23,5.3,15,12.32,29.3,17.06,44.6,0,.18.1.38.16.57,0,6.75.27,13.53.47,20.12a3.57,3.57,0,0,0,4.33,3.42c1.25,5.41,3,10.54,5.88,14.71,3.85,5.52,14.72,4.94,14.15-3.61-.82-12.15-2.23-23.9-.06-36.1,2.35-13.27,6.06-26.56,9.28-39.64,2.73-11.09,8-21.14,14.53-30.36a47.14,47.14,0,0,1,5-5.86c-1.45,7-2.6,14.09-4.06,21.09-1.28,6.1-3.23,11.95-4.16,18.15a71.76,71.76,0,0,0-.47,8.88,42.75,42.75,0,0,0-3.31,18.19c.2,5.7,8.11,9.07,11.09,3.34A27,27,0,0,0,205,203.52c4.56-11.52,15.47-19.27,26.59-25.58a154,154,0,0,1,26.21-11.79c2.15-.74,4.42-1.66,6.76-2.61-3.17,6.94-5.65,14.34-8.47,20C250.35,195,243.68,206,237.85,217.38c-3.14,6.17-5.92,12.45-8.56,18.85-.79,1.9-1.49,3.85-2.18,5.79-1.31,2.68-2.48,5.46-3.75,8.06-3.86,7.92,3.69,17.89,12.13,13,3.38-2,5-5.18,6.2-8.72a45,45,0,0,1,5.9-8.95c4.29-4.8,9.52-9,14.2-13.33,8.81-8.24,20.65-14.27,30.79-20.62,7.45-4.66,17.18-7.66,26.21-10.33-1.08,1.22-2.15,2.44-3.17,3.62C301,221.53,286.31,238.52,271.29,255c-5.81,6.37,2.95,15.93,9.17,9.81,37.37-36.74,100.68-32.84,148.21-30.26,4,.22,7.15-3.31,7.36-7.22,1.65-31.66-4-62.23-17.59-90.86-6.59-13.88-16.8-25.29-26.44-36.94-.52-.62-1.08-1.2-1.62-1.8a203.84,203.84,0,0,1,36.27,31.12,180.09,180.09,0,0,1,40.65,69.09c4,13,8.2,28.23,7.78,41.92-.46,14.78-2.44,29.46-2.89,44.25-.34,10.74,15.9,11.08,16.24.35.59-17.88,5.28-34.41,8.23-51.88,1-6.13,2.13-12.25,3.32-18.34a6.7,6.7,0,0,0,3.5-1.3c8.47-6.57,11.4-16.66,17.86-24.83A228.84,228.84,0,0,1,547,160.61c9.88-9,20.65-15.17,32.21-21.48,2.79-1.52,5.59-3.08,8.43-4.57-10.46,7.87-19.46,17.51-27.9,27.94-6.62,8.18-13.09,16.48-19.73,24.65-7.42,6.12-13,13.83-14.35,24.07a4,4,0,0,0,2.5,4.64,36.74,36.74,0,0,1-4.67,6.22c-7.41,7.42-.19,18.57,9.17,17,4.15-.71,7-2.76,10.24-5.35s8.16-3.87,12-5.61c10.55-4.75,20.63-10.32,32-12.84l3.68-.81c-4.66,5.17-8,11-6.75,17.23,1.43,7.09,10.38,9.7,16.39,8.45a86.47,86.47,0,0,0,10.92-3.46c5.8-2,14.36-.31,20.48-.25l5.47.07c-7.38,3.73-3.18,16.64,6.1,15.19l35.18-5.52c11.67-1.83,22.4-1.8,34.23-1.31,8,.34,16,.4,24.08.45-6.46,2.16-6.07,13.26,1.82,13.35,20.88.24,40.53-4.16,61.24-5.64,11.86-.85,23.57-2.35,35.47-2.55,12.1-.2,24.11.32,36.21-.45,28.49-1.82,56.91-.6,85.29-1.13a6.63,6.63,0,0,0,6.06-.14,381,381,0,0,0,38.4-2.84,14.82,14.82,0,0,0,1.43,1.2c10.56,7.88,29.23-1.15,40.42-2.64a4.9,4.9,0,0,0,4.32-3.51c11.28,1.17,22.56,2.58,33.78,3.13,10.27.51,20.32-1.45,30.55-1.72,9.85-.27,19.49-.71,29.31-1.13,3.4-.15,6.78-.19,10.16-.2,8.1,2,16.78,2.27,24.91,3.1,2.62.27,4.37-1.77,4.8-4.06h.47a20.13,20.13,0,0,0,2.37,4.67,20.38,20.38,0,0,0,4.15,3.22,26.64,26.64,0,0,0,4.11,3.59c5.78,4.49,12.56-3.61,9.59-9.41l0,0,1.9.09c6.58.34,8.49-9,3.42-12a7.29,7.29,0,0,0,2.68-2.16c.24.7.49,1.4.76,2.09,2.13,5.35,9.17,5,12.8,2a21.55,21.55,0,0,0,4.74-5.85,4.43,4.43,0,0,0,4.6,1.16c14.25-5.63,26.09-19.73,37.31-30,5-4.58,9.91-9.08,14.68-13.84-2.69,3.15-5.39,6.27-8,9.41-9.61,11.4-19.62,22.85-23.16,37.88-1.57,6.68,6.93,13.65,12.06,7.55,12.15-14.44,27.56-23.68,44.11-31.87,9.72-4.81,17.52-13.1,28.53-15.39l.88-.17c-5.4,5.41-12,9.55-13.45,17.81-.54,3.12.59,6.6,3.94,7.48,5.12,1.36,9.78-1,14.32-3.23,6.92-3.47,12.71-7.27,20.2-9.6a135.78,135.78,0,0,1,24.31-5c5.48-.65,10.89-1.7,16.24-1.68-10,3.78-17.46,9.71-20.8,21-3.57,12,4.66,21.54,15.66,23.63,14.88,2.85,31,.55,45.9-.94q6-.6,12.06-1.54c-4.43,7.32-4.7,15.72,3.43,23.74,9.33,9.2,26.75,9.41,38.66,9.23,14.46-.22,28.63-5.22,41.6-11.47a58.31,58.31,0,0,0,14.75-10.34c3.7-3.52,16.37-15.17,21.41-7.9,5.75,8.3,6,16.16,16.25,20.55,5,2.15,11.57,0,16.17-2.16,7.37-3.51,14.87-6.63,22.49-9.57,6.56-2.53,14-6,19.48-10.57,1.59-1.33,3.24-3.11,5-4.78a14.7,14.7,0,0,0,1.59,5.6c2.46,4.53,9,8,13.45,9.74,13,5,27.6,7.61,41.44,8.84,30.12,2.67,57.19-12,85.86-18.62,12-2.77,25.53-.72,37.06-5.31,6.5-2.58,11.2-11.21,14.6-19.37,8.14,10.82,18.37,20.54,28.81,26.32,16.4,9.1,32.63,6.77,46.2-5.92,7.89-7.39,14.64-15.92,21.26-24.49,2.11-2.74,5.3-4.68,7.52-7.49.9-1.14,1.85-2.36,2.85-3.58.63,4.46.76,9.34,2.61,13,3.36,6.63,8.93,10.25,16.12,11.2,10,1.33,18.88-1.58,27.6-6.35,4.72-2.58,9.16-8,14.1-10.83,1.37,3,2.12,6.42,3.88,9.18,2.48,3.89,6.41,5.85,10.56,7.28,4.83,1.67,10.56,1.15,15.54,1a153.43,153.43,0,0,1,23.85,1.4c6.9.84,13.66,2.43,20.52,3.43,8.3,1.21,16.32.3,24.61-.62,6.89-.75,13.75-.48,20.66-.32,2.39.05,5.19.5,7.54-.11,3.44-.89,6.27-3.17,9.85-3.77,3.34-.56,5.74-4.21,5.81-7.48,0-.67,0-1.34.05-2C2160.56,207.68,2149.87,206.07,2146.2,211.67ZM500.61,107.79a60.79,60.79,0,0,1,4.31-7.15c-2.29,4.82-4.54,9.67-6.65,14.6-1.35,3.17-2.55,6.4-3.7,9.66A73.64,73.64,0,0,1,500.61,107.79Zm-333.9,42.26c1.83-10.2,3.13-20.51,5.29-30.65,4.1-19.23,14.4-40,31.49-50.27,7.16-4.29,16.76-4.51,24.37-8.13a45.25,45.25,0,0,0,3.91-2.46c-2.06,3.07-4.33,6-6.32,8.73-6.11,8.44-13.1,16.21-19.44,24.48-13.37,17.45-23.67,37.45-33,57.41A184.81,184.81,0,0,0,160,186c0-.33,0-.67,0-1C160.23,173.23,164.64,161.64,166.71,150.05Zm311.36,10.61c-1.3-4.63-2.58-9.27-3.77-13.94-3.28-12.9-4.18-26-6-39.13.07.14.13.29.2.44,6.71,15.56,9.28,32.44,10.12,49.59C478.42,158.63,478.23,159.65,478.07,160.66Zm68.79,34.68c-2.22,1.88-4.33,3.73-6.37,5.64l.48-.67c4.19-5.11,10-9.35,14.7-12.27.6-.37,1.22-.73,1.83-1.09C553.9,189.64,550.33,192.4,546.86,195.34Zm379.72,41.83c0-22.08-12-41.56-23.42-60.42,4.19,5.38,8.06,11.09,11.92,15.59,6.18,7.21,11.36,15.94,16.48,24a128.27,128.27,0,0,1,6.8,11.52,41.9,41.9,0,0,0,2.22,9.38C935.91,237.27,931.25,237.24,926.58,237.17Zm221.35-9.26h-.17c-6.62-2.6-13-6.46-18.81-9.64-8.49-4.7-15.28-10.9-22.68-17.09-1.79-1.5-5.46-3.56-8.91-5.86a95.42,95.42,0,0,1,13.94,3.59c9.59,3.17,18.7,6.85,27.34,12.21,7.78,4.82,15.21,10.6,22.59,16.06l.45.31C1157.11,227.73,1152.53,227.94,1147.93,227.91Zm42.72-1.7A79,79,0,0,0,1180.2,217c-12.22-8.39-22.18-19.62-33.63-29-10.65-8.71-18.94-18.11-28.27-28.22a87,87,0,0,0-8.24-7.63,212.22,212.22,0,0,1,33.16,13.57c11.63,5.85,21.47,16.3,30,26.07,6.54,7.46,13.43,15.19,18.6,23.86C1191.52,219.18,1191.07,222.69,1190.65,226.21Zm-4-120c-5-8.23-9.19-17-14.24-25.23a196,196,0,0,1,15,20.08c6.52,10,10.23,21.47,12.72,33.34A152.19,152.19,0,0,0,1186.63,106.21Z"/>
    </g>
  </g>
</svg>